<svg width="600" height="400" xmlns="http://www.w3.org/2000/svg">
  <defs>
    <linearGradient id="bg" x1="0%" y1="0%" x2="100%" y2="100%">
      <stop offset="0%" style="stop-color:#f8f9fa;stop-opacity:1" />
      <stop offset="100%" style="stop-color:#f0fdf4;stop-opacity:1" />
    </linearGradient>
  </defs>
  <rect width="600" height="400" fill="url(#bg)" />
  
  <!-- Main workflow icon -->
  <circle cx="300" cy="160" r="40" fill="#10b981" opacity="0.1"/>
  <path d="M280 140 h40 v40 h-40 z" fill="#10b981" opacity="0.8"/>
  <path d="M290 148 h20 v6 h-20 z M290 156 h15 v6 h-15 z M290 164 h18 v6 h-18 z M290 172 h12 v6 h-12 z" fill="white"/>
  
  <!-- Lead sources -->
  <circle cx="150" cy="120" r="18" fill="#f59e0b" opacity="0.2"/>
  <text x="150" y="125" text-anchor="middle" font-family="Inter, sans-serif" font-size="8" fill="#f59e0b">HubSpot</text>
  
  <circle cx="150" cy="200" r="18" fill="#ef4444" opacity="0.2"/>
  <text x="150" y="205" text-anchor="middle" font-family="Inter, sans-serif" font-size="8" fill="#ef4444">Clearbit</text>
  
  <!-- Output channels -->
  <circle cx="450" cy="120" r="18" fill="#3b82f6" opacity="0.2"/>
  <text x="450" y="125" text-anchor="middle" font-family="Inter, sans-serif" font-size="8" fill="#3b82f6">Slack</text>
  
  <circle cx="450" cy="200" r="18" fill="#6366f1" opacity="0.2"/>
  <text x="450" y="205" text-anchor="middle" font-family="Inter, sans-serif" font-size="8" fill="#6366f1">Gmail</text>
  
  <!-- Connection lines -->
  <line x1="168" y1="130" x2="260" y2="150" stroke="#10b981" stroke-width="2" opacity="0.6"/>
  <line x1="168" y1="190" x2="260" y2="170" stroke="#10b981" stroke-width="2" opacity="0.6"/>
  <line x1="340" y1="150" x2="432" y2="130" stroke="#10b981" stroke-width="2" opacity="0.6"/>
  <line x1="340" y1="170" x2="432" y2="190" stroke="#10b981" stroke-width="2" opacity="0.6"/>
  
  <!-- Scoring indicator -->
  <rect x="285" y="200" width="30" height="8" rx="4" fill="#10b981" opacity="0.3"/>
  <text x="300" y="220" text-anchor="middle" font-family="Inter, sans-serif" font-size="10" fill="#10b981">Score: 85%</text>
  
  <!-- Title -->
  <text x="300" y="280" text-anchor="middle" font-family="Inter, sans-serif" font-size="24" font-weight="600" fill="#1f2937">Lead Qualification</text>
  <text x="300" y="300" text-anchor="middle" font-family="Inter, sans-serif" font-size="16" fill="#6b7280">N8N Workflow</text>
  
  <!-- Decorative elements -->
  <circle cx="100" cy="80" r="3" fill="#10b981" opacity="0.3"/>
  <circle cx="500" cy="100" r="2" fill="#f59e0b" opacity="0.4"/>
  <circle cx="80" cy="320" r="2" fill="#3b82f6" opacity="0.3"/>
  <circle cx="520" cy="340" r="3" fill="#ef4444" opacity="0.3"/>
</svg>