<svg width="600" height="400" xmlns="http://www.w3.org/2000/svg">
  <defs>
    <linearGradient id="bg" x1="0%" y1="0%" x2="100%" y2="100%">
      <stop offset="0%" style="stop-color:#f8f9fa;stop-opacity:1" />
      <stop offset="100%" style="stop-color:#fdf2f8;stop-opacity:1" />
    </linearGradient>
  </defs>
  <rect width="600" height="400" fill="url(#bg)" />
  
  <!-- Main workflow icon -->
  <circle cx="300" cy="160" r="40" fill="#8b5cf6" opacity="0.1"/>
  <path d="M280 140 h40 v40 h-40 z" fill="#8b5cf6" opacity="0.8"/>
  <path d="M288 148 l8 8 l16 -16 l4 4 l-20 20 l-12 -12 z" fill="white"/>
  
  <!-- Social media nodes -->
  <circle cx="200" cy="120" r="18" fill="#1da1f2" opacity="0.2"/>
  <text x="200" y="125" text-anchor="middle" font-family="Inter, sans-serif" font-size="8" fill="#1da1f2">Twitter</text>
  
  <circle cx="400" cy="120" r="18" fill="#0077b5" opacity="0.2"/>
  <text x="400" y="125" text-anchor="middle" font-family="Inter, sans-serif" font-size="8" fill="#0077b5">LinkedIn</text>
  
  <circle cx="200" cy="240" r="18" fill="#21759b" opacity="0.2"/>
  <text x="200" y="245" text-anchor="middle" font-family="Inter, sans-serif" font-size="8" fill="#21759b">WP</text>
  
  <circle cx="400" cy="240" r="18" fill="#10b981" opacity="0.2"/>
  <text x="400" y="245" text-anchor="middle" font-family="Inter, sans-serif" font-size="8" fill="#10b981">Buffer</text>
  
  <!-- Connection lines -->
  <line x1="218" y1="130" x2="270" y2="150" stroke="#8b5cf6" stroke-width="2" opacity="0.6"/>
  <line x1="382" y1="130" x2="330" y2="150" stroke="#8b5cf6" stroke-width="2" opacity="0.6"/>
  <line x1="218" y1="230" x2="270" y2="180" stroke="#8b5cf6" stroke-width="2" opacity="0.6"/>
  <line x1="382" y1="230" x2="330" y2="180" stroke="#8b5cf6" stroke-width="2" opacity="0.6"/>
  
  <!-- Title -->
  <text x="300" y="280" text-anchor="middle" font-family="Inter, sans-serif" font-size="24" font-weight="600" fill="#1f2937">Social Media Pipeline</text>
  <text x="300" y="300" text-anchor="middle" font-family="Inter, sans-serif" font-size="16" fill="#6b7280">N8N Workflow</text>
  
  <!-- Decorative elements -->
  <circle cx="120" cy="80" r="3" fill="#8b5cf6" opacity="0.3"/>
  <circle cx="480" cy="90" r="2" fill="#1da1f2" opacity="0.4"/>
  <circle cx="100" cy="320" r="2" fill="#0077b5" opacity="0.3"/>
  <circle cx="500" cy="340" r="3" fill="#21759b" opacity="0.3"/>
</svg>